<?xml version="1.0" encoding="utf-8"?>
<!-- Generated by IcoMoon.io -->
<svg version="1.1" xmlns="http://www.w3.org/2000/svg" xmlns:xlink="http://www.w3.org/1999/xlink" width="534" height="58" viewBox="0 0 534 58">
<svg id="icon-plus" width="19" height="24" viewBox="0 0 19 24" x="0" y="0">
<path fill="#808080" d="M18.857 9.857v2.571c0 0.71-0.576 1.286-1.286 1.286h-5.571v5.571c0 0.71-0.576 1.286-1.286 1.286h-2.571c-0.71 0-1.286-0.576-1.286-1.286v-5.571h-5.571c-0.71 0-1.286-0.576-1.286-1.286v-2.571c0-0.71 0.576-1.286 1.286-1.286h5.571v-5.571c0-0.71 0.576-1.286 1.286-1.286h2.571c0.71 0 1.286 0.576 1.286 1.286v5.571h5.571c0.71 0 1.286 0.576 1.286 1.286z"></path>
</svg>
<svg id="icon-search" width="22" height="24" viewBox="0 0 22 24" x="34" y="0">
<path fill="#808080" d="M15.429 11.143c0-3.308-2.692-6-6-6s-6 2.692-6 6 2.692 6 6 6 6-2.692 6-6zM22.286 22.286c0 0.938-0.777 1.714-1.714 1.714-0.455 0-0.897-0.188-1.205-0.509l-4.594-4.58c-1.567 1.085-3.442 1.661-5.344 1.661-5.21 0-9.429-4.219-9.429-9.429s4.219-9.429 9.429-9.429 9.429 4.219 9.429 9.429c0 1.902-0.576 3.777-1.661 5.344l4.594 4.594c0.308 0.308 0.496 0.75 0.496 1.205z"></path>
</svg>
<svg id="icon-envelope-o" width="24" height="24" viewBox="0 0 24 24" x="68" y="0">
<path fill="#808080" d="M22.286 20.143v-10.286c-0.281 0.321-0.589 0.616-0.924 0.884-1.915 1.473-3.844 2.973-5.705 4.527-1.004 0.844-2.25 1.875-3.643 1.875h-0.027c-1.393 0-2.638-1.031-3.643-1.875-1.862-1.554-3.79-3.054-5.705-4.527-0.335-0.268-0.643-0.563-0.924-0.884v10.286c0 0.228 0.201 0.429 0.429 0.429h19.714c0.228 0 0.429-0.201 0.429-0.429zM22.286 6.067c0-0.335 0.080-0.924-0.429-0.924h-19.714c-0.228 0-0.429 0.201-0.429 0.429 0 1.527 0.763 2.853 1.969 3.804 1.795 1.406 3.589 2.826 5.371 4.246 0.71 0.576 1.996 1.808 2.933 1.808h0.027c0.938 0 2.223-1.232 2.933-1.808 1.781-1.42 3.576-2.839 5.371-4.246 0.871-0.683 1.969-2.17 1.969-3.308zM24 5.571v14.571c0 1.179-0.964 2.143-2.143 2.143h-19.714c-1.179 0-2.143-0.964-2.143-2.143v-14.571c0-1.179 0.964-2.143 2.143-2.143h19.714c1.179 0 2.143 0.964 2.143 2.143z"></path>
</svg>
<svg id="icon-user" width="17" height="24" viewBox="0 0 17 24" x="102" y="0">
<path fill="#808080" d="M17.143 18.737c0 1.955-1.286 3.549-2.853 3.549h-11.438c-1.567 0-2.853-1.594-2.853-3.549 0-3.522 0.871-7.594 4.379-7.594 1.085 1.058 2.558 1.714 4.192 1.714s3.107-0.656 4.192-1.714c3.509 0 4.379 4.071 4.379 7.594zM13.714 6.857c0 2.839-2.304 5.143-5.143 5.143s-5.143-2.304-5.143-5.143 2.304-5.143 5.143-5.143 5.143 2.304 5.143 5.143z"></path>
</svg>
<svg id="icon-trash-o" width="19" height="24" viewBox="0 0 19 24" x="136" y="0">
<path fill="#808080" d="M6.857 9.857v7.714c0 0.241-0.188 0.429-0.429 0.429h-0.857c-0.241 0-0.429-0.188-0.429-0.429v-7.714c0-0.241 0.188-0.429 0.429-0.429h0.857c0.241 0 0.429 0.188 0.429 0.429zM10.286 9.857v7.714c0 0.241-0.188 0.429-0.429 0.429h-0.857c-0.241 0-0.429-0.188-0.429-0.429v-7.714c0-0.241 0.188-0.429 0.429-0.429h0.857c0.241 0 0.429 0.188 0.429 0.429zM13.714 9.857v7.714c0 0.241-0.188 0.429-0.429 0.429h-0.857c-0.241 0-0.429-0.188-0.429-0.429v-7.714c0-0.241 0.188-0.429 0.429-0.429h0.857c0.241 0 0.429 0.188 0.429 0.429zM15.429 19.554v-12.696h-12v12.696c0 0.643 0.362 1.018 0.429 1.018h11.143c0.067 0 0.429-0.375 0.429-1.018zM6.429 5.143h6l-0.643-1.567c-0.040-0.054-0.161-0.134-0.228-0.147h-4.246c-0.080 0.013-0.188 0.094-0.228 0.147zM18.857 5.571v0.857c0 0.241-0.188 0.429-0.429 0.429h-1.286v12.696c0 1.473-0.964 2.732-2.143 2.732h-11.143c-1.179 0-2.143-1.205-2.143-2.679v-12.75h-1.286c-0.241 0-0.429-0.188-0.429-0.429v-0.857c0-0.241 0.188-0.429 0.429-0.429h4.138l0.938-2.237c0.268-0.656 1.071-1.192 1.781-1.192h4.286c0.71 0 1.513 0.536 1.781 1.192l0.938 2.237h4.138c0.241 0 0.429 0.188 0.429 0.429z"></path>
</svg>
<svg id="icon-tag" width="20" height="24" viewBox="0 0 20 24" x="170" y="0">
<path fill="#808080" d="M6 6c0-0.951-0.763-1.714-1.714-1.714s-1.714 0.763-1.714 1.714 0.763 1.714 1.714 1.714 1.714-0.763 1.714-1.714zM20.29 13.714c0 0.455-0.188 0.897-0.496 1.205l-6.576 6.589c-0.321 0.308-0.763 0.496-1.219 0.496s-0.897-0.188-1.205-0.496l-9.576-9.589c-0.683-0.67-1.219-1.969-1.219-2.92v-5.571c0-0.938 0.777-1.714 1.714-1.714h5.571c0.951 0 2.25 0.536 2.933 1.219l9.576 9.563c0.308 0.321 0.496 0.763 0.496 1.219z"></path>
</svg>
<svg id="icon-calendar" width="22" height="24" viewBox="0 0 22 24" x="204" y="0">
<path fill="#808080" d="M1.714 22.286h3.857v-3.857h-3.857v3.857zM6.429 22.286h4.286v-3.857h-4.286v3.857zM1.714 17.571h3.857v-4.286h-3.857v4.286zM6.429 17.571h4.286v-4.286h-4.286v4.286zM1.714 12.429h3.857v-3.857h-3.857v3.857zM11.571 22.286h4.286v-3.857h-4.286v3.857zM6.429 12.429h4.286v-3.857h-4.286v3.857zM16.714 22.286h3.857v-3.857h-3.857v3.857zM11.571 17.571h4.286v-4.286h-4.286v4.286zM6.857 6v-3.857c0-0.228-0.201-0.429-0.429-0.429h-0.857c-0.228 0-0.429 0.201-0.429 0.429v3.857c0 0.228 0.201 0.429 0.429 0.429h0.857c0.228 0 0.429-0.201 0.429-0.429zM16.714 17.571h3.857v-4.286h-3.857v4.286zM11.571 12.429h4.286v-3.857h-4.286v3.857zM16.714 12.429h3.857v-3.857h-3.857v3.857zM17.143 6v-3.857c0-0.228-0.201-0.429-0.429-0.429h-0.857c-0.228 0-0.429 0.201-0.429 0.429v3.857c0 0.228 0.201 0.429 0.429 0.429h0.857c0.228 0 0.429-0.201 0.429-0.429zM22.286 5.143v17.143c0 0.938-0.777 1.714-1.714 1.714h-18.857c-0.938 0-1.714-0.777-1.714-1.714v-17.143c0-0.938 0.777-1.714 1.714-1.714h1.714v-1.286c0-1.179 0.964-2.143 2.143-2.143h0.857c1.179 0 2.143 0.964 2.143 2.143v1.286h5.143v-1.286c0-1.179 0.964-2.143 2.143-2.143h0.857c1.179 0 2.143 0.964 2.143 2.143v1.286h1.714c0.938 0 1.714 0.777 1.714 1.714z"></path>
</svg>
<svg id="icon-feed" width="19" height="24" viewBox="0 0 19 24" x="238" y="0">
<path fill="#808080" d="M5.143 18c0 1.42-1.152 2.571-2.571 2.571s-2.571-1.152-2.571-2.571 1.152-2.571 2.571-2.571 2.571 1.152 2.571 2.571zM12 19.647c0.013 0.241-0.067 0.469-0.228 0.643-0.161 0.188-0.388 0.281-0.629 0.281h-1.808c-0.442 0-0.804-0.335-0.844-0.777-0.388-4.085-3.629-7.326-7.714-7.714-0.442-0.040-0.777-0.402-0.777-0.844v-1.808c0-0.241 0.094-0.469 0.281-0.629 0.147-0.147 0.362-0.228 0.576-0.228h0.067c2.853 0.228 5.545 1.473 7.567 3.509 2.036 2.022 3.281 4.714 3.509 7.567zM18.857 19.674c0.013 0.228-0.067 0.455-0.241 0.629-0.161 0.174-0.375 0.268-0.616 0.268h-1.915c-0.455 0-0.83-0.348-0.857-0.804-0.442-7.781-6.643-13.982-14.424-14.437-0.455-0.027-0.804-0.402-0.804-0.844v-1.915c0-0.241 0.094-0.455 0.268-0.616 0.161-0.161 0.375-0.241 0.589-0.241h0.040c4.688 0.241 9.094 2.21 12.415 5.545 3.335 3.321 5.304 7.728 5.545 12.415z"></path>
</svg>
<svg id="icon-filter" width="19" height="24" viewBox="0 0 19 24" x="272" y="0">
<path fill="#808080" d="M18.79 3.951c0.134 0.321 0.067 0.696-0.188 0.938l-6.603 6.603v9.938c0 0.348-0.214 0.656-0.522 0.79-0.107 0.040-0.228 0.067-0.335 0.067-0.228 0-0.442-0.080-0.603-0.254l-3.429-3.429c-0.161-0.161-0.254-0.375-0.254-0.603v-6.509l-6.603-6.603c-0.254-0.241-0.321-0.616-0.188-0.938 0.134-0.308 0.442-0.522 0.79-0.522h17.143c0.348 0 0.656 0.214 0.79 0.522z"></path>
</svg>
<svg id="icon-bars" width="21" height="24" viewBox="0 0 21 24" x="306" y="0">
<path fill="#808080" d="M20.571 18v1.714c0 0.469-0.388 0.857-0.857 0.857h-18.857c-0.469 0-0.857-0.388-0.857-0.857v-1.714c0-0.469 0.388-0.857 0.857-0.857h18.857c0.469 0 0.857 0.388 0.857 0.857zM20.571 11.143v1.714c0 0.469-0.388 0.857-0.857 0.857h-18.857c-0.469 0-0.857-0.388-0.857-0.857v-1.714c0-0.469 0.388-0.857 0.857-0.857h18.857c0.469 0 0.857 0.388 0.857 0.857zM20.571 4.286v1.714c0 0.469-0.388 0.857-0.857 0.857h-18.857c-0.469 0-0.857-0.388-0.857-0.857v-1.714c0-0.469 0.388-0.857 0.857-0.857h18.857c0.469 0 0.857 0.388 0.857 0.857z"></path>
</svg>
<svg id="icon-envelope" width="24" height="24" viewBox="0 0 24 24" x="340" y="0">
<path fill="#808080" d="M24 9.509v10.634c0 1.179-0.964 2.143-2.143 2.143h-19.714c-1.179 0-2.143-0.964-2.143-2.143v-10.634c0.402 0.442 0.857 0.83 1.353 1.165 2.223 1.513 4.473 3.027 6.656 4.621 1.125 0.83 2.518 1.848 3.978 1.848h0.027c1.46 0 2.853-1.018 3.978-1.848 2.183-1.58 4.433-3.107 6.67-4.621 0.482-0.335 0.938-0.723 1.339-1.165zM24 5.571c0 1.5-1.112 2.853-2.29 3.67-2.089 1.446-4.192 2.893-6.268 4.353-0.871 0.603-2.344 1.835-3.429 1.835h-0.027c-1.085 0-2.558-1.232-3.429-1.835-2.076-1.46-4.179-2.906-6.254-4.353-0.951-0.643-2.304-2.156-2.304-3.375 0-1.313 0.71-2.437 2.143-2.437h19.714c1.165 0 2.143 0.964 2.143 2.143z"></path>
</svg>
<svg id="icon-file-text-o" width="21" height="24" viewBox="0 0 21 24" x="374" y="0">
<path fill="#808080" d="M19.661 5.089c0.496 0.496 0.911 1.487 0.911 2.196v15.429c0 0.71-0.576 1.286-1.286 1.286h-18c-0.71 0-1.286-0.576-1.286-1.286v-21.429c0-0.71 0.576-1.286 1.286-1.286h12c0.71 0 1.701 0.415 2.196 0.911zM13.714 1.821v5.036h5.036c-0.080-0.228-0.201-0.455-0.295-0.549l-4.192-4.192c-0.094-0.094-0.321-0.214-0.549-0.295zM18.857 22.286v-13.714h-5.571c-0.71 0-1.286-0.576-1.286-1.286v-5.571h-10.286v20.571h17.143zM5.143 10.714c0-0.241 0.188-0.429 0.429-0.429h9.429c0.241 0 0.429 0.188 0.429 0.429v0.857c0 0.241-0.188 0.429-0.429 0.429h-9.429c-0.241 0-0.429-0.188-0.429-0.429v-0.857zM15 13.714c0.241 0 0.429 0.188 0.429 0.429v0.857c0 0.241-0.188 0.429-0.429 0.429h-9.429c-0.241 0-0.429-0.188-0.429-0.429v-0.857c0-0.241 0.188-0.429 0.429-0.429h9.429zM15 17.143c0.241 0 0.429 0.188 0.429 0.429v0.857c0 0.241-0.188 0.429-0.429 0.429h-9.429c-0.241 0-0.429-0.188-0.429-0.429v-0.857c0-0.241 0.188-0.429 0.429-0.429h9.429z"></path>
</svg>
<svg id="icon-flag-o" width="25" height="24" viewBox="0 0 25 24" x="408" y="0">
<path fill="#808080" d="M22.286 13.996v-8.25c-1.071 0.576-2.571 1.219-4.098 1.219v0c-0.71 0-1.366-0.134-1.942-0.429-1.433-0.71-2.987-1.393-4.848-1.393-1.728 0-3.844 0.844-5.397 1.701v8.022c1.768-0.817 4.018-1.513 5.799-1.513 2.063 0 3.402 0.683 4.835 1.393l0.375 0.188c0.375 0.188 0.83 0.295 1.353 0.295 1.487 0 3.094-0.79 3.924-1.232zM4.286 3.429c0 0.629-0.348 1.179-0.857 1.473v16.955c0 0.241-0.188 0.429-0.429 0.429h-0.857c-0.241 0-0.429-0.188-0.429-0.429v-16.955c-0.509-0.295-0.857-0.844-0.857-1.473 0-0.951 0.763-1.714 1.714-1.714s1.714 0.763 1.714 1.714zM24 4.286v10.219c0 0.321-0.188 0.616-0.469 0.763-0.054 0.027-0.134 0.067-0.228 0.121-0.857 0.455-2.879 1.554-4.942 1.554-0.79 0-1.5-0.161-2.116-0.469l-0.375-0.188c-1.353-0.683-2.424-1.219-4.071-1.219-1.929 0-4.647 1.004-6.214 1.955-0.134 0.080-0.295 0.121-0.442 0.121s-0.295-0.040-0.429-0.107c-0.268-0.161-0.429-0.442-0.429-0.75v-9.937c0-0.295 0.161-0.576 0.415-0.737 0.857-0.509 3.884-2.183 6.696-2.183 2.237 0 4.058 0.817 5.598 1.567 0.348 0.174 0.75 0.254 1.192 0.254 1.58 0 3.321-1.004 4.152-1.5 0.174-0.094 0.321-0.174 0.415-0.228 0.268-0.134 0.576-0.121 0.83 0.027 0.254 0.161 0.415 0.442 0.415 0.737z"></path>
</svg>
<svg id="icon-minus-square-o" width="19" height="24" viewBox="0 0 19 24" x="442" y="0">
<path fill="#808080" d="M15.429 10.714v0.857c0 0.241-0.188 0.429-0.429 0.429h-11.143c-0.241 0-0.429-0.188-0.429-0.429v-0.857c0-0.241 0.188-0.429 0.429-0.429h11.143c0.241 0 0.429 0.188 0.429 0.429zM17.143 16.714v-11.143c0-1.179-0.964-2.143-2.143-2.143h-11.143c-1.179 0-2.143 0.964-2.143 2.143v11.143c0 1.179 0.964 2.143 2.143 2.143h11.143c1.179 0 2.143-0.964 2.143-2.143zM18.857 5.571v11.143c0 2.129-1.728 3.857-3.857 3.857h-11.143c-2.129 0-3.857-1.728-3.857-3.857v-11.143c0-2.129 1.728-3.857 3.857-3.857h11.143c2.129 0 3.857 1.728 3.857 3.857z"></path>
</svg>
<svg id="icon-paper-plane-o" width="24" height="24" viewBox="0 0 24 24" x="476" y="0">
<path fill="#808080" d="M23.625 0.147c0.281 0.201 0.415 0.522 0.362 0.857l-3.429 20.571c-0.040 0.254-0.201 0.469-0.429 0.603-0.121 0.067-0.268 0.107-0.415 0.107-0.107 0-0.214-0.027-0.321-0.067l-7.058-2.879-3.991 4.379c-0.161 0.188-0.388 0.281-0.629 0.281-0.107 0-0.214-0.013-0.308-0.054-0.335-0.134-0.549-0.455-0.549-0.804v-6.054l-6.321-2.585c-0.308-0.121-0.509-0.402-0.536-0.737-0.027-0.321 0.147-0.629 0.429-0.79l22.286-12.857c0.281-0.174 0.643-0.161 0.911 0.027zM19.045 20.223l2.96-17.719-19.205 11.076 4.5 1.835 11.558-8.558-6.402 10.674z"></path>
</svg>
<svg id="icon-user-plus" width="27" height="24" viewBox="0 0 27 24" x="0" y="34">
<path fill="#808080" d="M9.429 12c-2.839 0-5.143-2.304-5.143-5.143s2.304-5.143 5.143-5.143 5.143 2.304 5.143 5.143-2.304 5.143-5.143 5.143zM22.286 13.714h4.714c0.228 0 0.429 0.201 0.429 0.429v2.571c0 0.228-0.201 0.429-0.429 0.429h-4.714v4.714c0 0.228-0.201 0.429-0.429 0.429h-2.571c-0.228 0-0.429-0.201-0.429-0.429v-4.714h-4.714c-0.228 0-0.429-0.201-0.429-0.429v-2.571c0-0.228 0.201-0.429 0.429-0.429h4.714v-4.714c0-0.228 0.201-0.429 0.429-0.429h2.571c0.228 0 0.429 0.201 0.429 0.429v4.714zM12.429 16.714c0 0.938 0.777 1.714 1.714 1.714h3.429v3.188c-0.656 0.482-1.487 0.67-2.29 0.67h-11.705c-2.143 0-3.576-1.286-3.576-3.469 0-3.027 0.71-7.674 4.634-7.674 0.214 0 0.362 0.094 0.522 0.228 1.312 1.004 2.585 1.634 4.272 1.634s2.96-0.629 4.272-1.634c0.161-0.134 0.308-0.228 0.522-0.228 1.138 0 2.143 0.429 2.906 1.286h-2.987c-0.938 0-1.714 0.777-1.714 1.714v2.571z"></path>
</svg>
<svg id="icon-address-book" width="22" height="24" viewBox="0 0 22 24" x="34" y="34">
<path fill="#808080" d="M16.085 16.58c0-2.371-0.576-5.009-2.96-5.009-0.737 0.429-1.741 1.165-2.839 1.165s-2.103-0.737-2.839-1.165c-2.384 0-2.96 2.638-2.96 5.009 0 1.326 0.871 2.277 1.942 2.277h7.714c1.071 0 1.942-0.951 1.942-2.277zM13.768 8.625c0-1.929-1.567-3.482-3.482-3.482s-3.482 1.554-3.482 3.482c0 1.915 1.567 3.469 3.482 3.469s3.482-1.554 3.482-3.469zM22.286 15.857v2.571c0 0.241-0.188 0.429-0.429 0.429h-1.286v3c0 1.179-0.964 2.143-2.143 2.143h-16.286c-1.179 0-2.143-0.964-2.143-2.143v-19.714c0-1.179 0.964-2.143 2.143-2.143h16.286c1.179 0 2.143 0.964 2.143 2.143v3h1.286c0.241 0 0.429 0.188 0.429 0.429v2.571c0 0.241-0.188 0.429-0.429 0.429h-1.286v1.714h1.286c0.241 0 0.429 0.188 0.429 0.429v2.571c0 0.241-0.188 0.429-0.429 0.429h-1.286v1.714h1.286c0.241 0 0.429 0.188 0.429 0.429z"></path>
</svg>
<svg id="icon-address-book-o" width="22" height="24" viewBox="0 0 22 24" x="68" y="34">
<path fill="#808080" d="M13.768 8.625c0 1.915-1.567 3.469-3.482 3.469s-3.482-1.554-3.482-3.469c0-1.929 1.567-3.482 3.482-3.482s3.482 1.554 3.482 3.482zM13.125 11.571c2.558 0 2.96 3.040 2.96 5.009 0 1.125-0.71 2.277-1.942 2.277h-7.714c-1.232 0-1.942-1.152-1.942-2.277 0-1.888 0.402-5.009 2.893-5.009h0.067c0.884 0.522 1.781 1.165 2.839 1.165s1.955-0.643 2.839-1.165zM22.286 8.143c0 0.228-0.201 0.429-0.429 0.429h-1.286v1.714h1.286c0.228 0 0.429 0.201 0.429 0.429v2.571c0 0.228-0.201 0.429-0.429 0.429h-1.286v1.714h1.286c0.228 0 0.429 0.201 0.429 0.429v2.571c0 0.228-0.201 0.429-0.429 0.429h-1.286v3c0 1.179-0.964 2.143-2.143 2.143h-16.286c-1.179 0-2.143-0.964-2.143-2.143v-19.714c0-1.179 0.964-2.143 2.143-2.143h16.286c1.179 0 2.143 0.964 2.143 2.143v3h1.286c0.228 0 0.429 0.201 0.429 0.429v2.571zM18.857 21.857v-19.714c0-0.228-0.201-0.429-0.429-0.429h-16.286c-0.228 0-0.429 0.201-0.429 0.429v19.714c0 0.228 0.201 0.429 0.429 0.429h16.286c0.228 0 0.429-0.201 0.429-0.429z"></path>
</svg>
<svg id="icon-user-circle-o" width="24" height="24" viewBox="0 0 24 24" x="102" y="34">
<path fill="#808080" d="M12 0c6.629 0 12 5.371 12 12 0 6.589-5.344 12-12 12-6.643 0-12-5.397-12-12 0-6.629 5.371-12 12-12zM20.29 18.094c1.246-1.714 1.996-3.817 1.996-6.094 0-5.665-4.621-10.286-10.286-10.286s-10.286 4.621-10.286 10.286c0 2.277 0.75 4.379 1.996 6.094 0.482-2.397 1.647-4.379 4.098-4.379 1.085 1.058 2.558 1.714 4.192 1.714s3.107-0.656 4.192-1.714c2.451 0 3.616 1.982 4.098 4.379zM17.143 9.429c0-2.839-2.304-5.143-5.143-5.143s-5.143 2.304-5.143 5.143 2.304 5.143 5.143 5.143 5.143-2.304 5.143-5.143z"></path>
</svg>
<svg id="icon-user-o" width="21" height="24" viewBox="0 0 21 24" x="136" y="34">
<path fill="#808080" d="M16.085 10.5c1.888 0.549 4.487 2.411 4.487 8.504 0 2.759-2.049 4.996-4.567 4.996h-11.437c-2.518 0-4.567-2.237-4.567-4.996 0-6.094 2.598-7.955 4.487-8.504-0.67-1.058-1.058-2.304-1.058-3.643 0-3.777 3.080-6.857 6.857-6.857s6.857 3.080 6.857 6.857c0 1.339-0.388 2.585-1.058 3.643zM10.286 1.714c-2.839 0-5.143 2.304-5.143 5.143s2.304 5.143 5.143 5.143 5.143-2.304 5.143-5.143-2.304-5.143-5.143-5.143zM16.004 22.286c1.567 0 2.853-1.46 2.853-3.281 0-4.219-1.42-6.857-4.071-6.991-1.205 1.058-2.772 1.701-4.5 1.701s-3.295-0.643-4.5-1.701c-2.652 0.134-4.071 2.772-4.071 6.991 0 1.821 1.286 3.281 2.853 3.281h11.438z"></path>
</svg>
</svg>
